<svg id="visual" viewBox="0 0 900 600" width="900" height="600" xmlns="http://www.w3.org/2000/svg" xmlns:xlink="http://www.w3.org/1999/xlink" version="1.1"><g><g transform="translate(170 599)"><path d="M0 -147L127.3 -73.5L127.3 73.5L0 147L-127.3 73.5L-127.3 -73.5Z" fill="none" stroke="#f5f5f5" stroke-width="2"></path></g><g transform="translate(713 86)"><path d="M0 -140L121.2 -70L121.2 70L0 140L-121.2 70L-121.2 -70Z" fill="none" stroke="#f5f5f5" stroke-width="2"></path></g><g transform="translate(364 346)"><path d="M0 -118L102.2 -59L102.2 59L0 118L-102.2 59L-102.2 -59Z" fill="none" stroke="#f5f5f5" stroke-width="2"></path></g><g transform="translate(855 483)"><path d="M0 -114L98.7 -57L98.7 57L0 114L-98.7 57L-98.7 -57Z" fill="none" stroke="#f5f5f5" stroke-width="2"></path></g><g transform="translate(191 51)"><path d="M0 -92L79.7 -46L79.7 46L0 92L-79.7 46L-79.7 -46Z" fill="none" stroke="#f5f5f5" stroke-width="2"></path></g></g></svg>